<?xml version="1.0" encoding="UTF-8" standalone="no"?>
<!-- Created with Inkscape (http://www.inkscape.org/) -->
<svg
   xmlns:dc="http://purl.org/dc/elements/1.1/"
   xmlns:cc="http://creativecommons.org/ns#"
   xmlns:rdf="http://www.w3.org/1999/02/22-rdf-syntax-ns#"
   xmlns:svg="http://www.w3.org/2000/svg"
   xmlns="http://www.w3.org/2000/svg"
   xmlns:sodipodi="http://sodipodi.sourceforge.net/DTD/sodipodi-0.dtd"
   xmlns:inkscape="http://www.inkscape.org/namespaces/inkscape"
   width="1052.3622"
   height="744.09448"
   id="svg9073"
   sodipodi:version="0.32"
   inkscape:version="0.46"
   sodipodi:docname="concepts-externals3.svg"
   inkscape:output_extension="org.inkscape.output.svg.inkscape"
   version="1.0">
  <defs
     id="defs9075">
    <marker
       inkscape:stockid="TriangleOutL"
       orient="auto"
       refY="0.0"
       refX="0.0"
       id="TriangleOutL"
       style="overflow:visible">
      <path
         id="path3589"
         d="M 5.77,0.0 L -2.88,5.0 L -2.88,-5.0 L 5.77,0.0 z "
         style="fill-rule:evenodd;stroke:#000000;stroke-width:1.0pt;marker-start:none"
         transform="scale(0.8)" />
    </marker>
    <marker
       inkscape:stockid="Arrow1Lend"
       orient="auto"
       refY="0"
       refX="0"
       id="Arrow1Lend"
       style="overflow:visible">
      <path
         id="path3449"
         d="M 0,0 L 5,-5 L -12.5,0 L 5,5 L 0,0 z"
         style="fill-rule:evenodd;stroke:#000000;stroke-width:1pt;marker-start:none"
         transform="matrix(-0.8,0,0,-0.8,-10,0)" />
    </marker>
    <marker
       inkscape:stockid="EmptyTriangleOutL"
       orient="auto"
       refY="0"
       refX="0"
       id="EmptyTriangleOutL"
       style="overflow:visible">
      <path
         id="path4101"
         d="M 5.77,0 L -2.88,5 L -2.88,-5 L 5.77,0 z"
         style="fill:#ffffff;fill-rule:evenodd;stroke:#000000;stroke-width:1pt;marker-start:none"
         transform="matrix(0.8,0,0,0.8,-4.8,0)" />
    </marker>
    <inkscape:perspective
       sodipodi:type="inkscape:persp3d"
       inkscape:vp_x="0 : 526.18109 : 1"
       inkscape:vp_y="0 : 1000 : 0"
       inkscape:vp_z="744.09448 : 526.18109 : 1"
       inkscape:persp3d-origin="372.04724 : 350.78739 : 1"
       id="perspective9081" />
  </defs>
  <sodipodi:namedview
     id="base"
     pagecolor="#ffffff"
     bordercolor="#666666"
     borderopacity="1.0"
     gridtolerance="10000"
     guidetolerance="10"
     objecttolerance="10"
     inkscape:pageopacity="0.0"
     inkscape:pageshadow="2"
     inkscape:zoom="0.98994949"
     inkscape:cx="412.26625"
     inkscape:cy="605.53638"
     inkscape:document-units="px"
     inkscape:current-layer="layer1"
     showgrid="false"
     inkscape:window-width="1600"
     inkscape:window-height="1134"
     inkscape:window-x="0"
     inkscape:window-y="0" />
  <metadata
     id="metadata9078">
    <rdf:RDF>
      <cc:Work
         rdf:about="">
        <dc:format>image/svg+xml</dc:format>
        <dc:type
           rdf:resource="http://purl.org/dc/dcmitype/StillImage" />
      </cc:Work>
    </rdf:RDF>
  </metadata>
  <g
     inkscape:label="Layer 1"
     inkscape:groupmode="layer"
     id="layer1">
    <g
       id="g10294"
       transform="translate(38.481904,8.9989183)">
      <g
         id="g10288">
        <path
           id="path2444"
           d="M 64.359852,36.851943 C 50.199352,37.918423 34.335102,39.419063 23.578602,49.570693 C 18.671249,54.336443 23.149312,61.483652 28.359852,63.820692 C 46.778312,73.788562 69.143792,74.127282 89.529042,71.005212 C 99.230712,68.812552 111.17057,66.594322 116.8286,57.383193 C 119.39527,49.874783 110.43422,45.232893 104.79735,42.789443 C 92.085082,37.693323 78.082752,36.399443 64.359852,36.851943 z"
           style="fill:none;fill-opacity:0.16129031;fill-rule:evenodd;stroke:#000000;stroke-width:2;stroke-linecap:butt;stroke-linejoin:miter;stroke-miterlimit:4;stroke-dasharray:none;stroke-opacity:1" />
        <g
           transform="translate(-73.556108,-225.78649)"
           id="g2446">
          <text
             xml:space="preserve"
             style="font-size:14px;font-style:normal;font-weight:normal;fill:#000000;fill-opacity:1;stroke:none;stroke-width:1px;stroke-linecap:butt;stroke-linejoin:miter;stroke-opacity:1;font-family:Bitstream Vera Sans"
             x="138.25835"
             y="285.64728"
             id="text2448"><tspan
               sodipodi:role="line"
               id="tspan2450"
               x="138.25835"
               y="285.64728">P</tspan></text>
        </g>
      </g>
      <path
         transform="matrix(0.700671,0,0,0.6882871,-17.943393,-140.37364)"
         d="M 54.712832,283.50293 L 45.210078,288.98935 L 45.210078,278.01651 L 54.712832,283.50293 z"
         inkscape:randomized="0"
         inkscape:rounded="0"
         inkscape:flatsided="true"
         sodipodi:arg2="1.0471976"
         sodipodi:arg1="0"
         sodipodi:r2="3.1675849"
         sodipodi:r1="6.3351698"
         sodipodi:cy="283.50293"
         sodipodi:cx="48.377663"
         sodipodi:sides="3"
         id="path2452"
         style="fill:#000000;fill-opacity:1;stroke:#000000;stroke-width:2;stroke-miterlimit:4;stroke-dasharray:none;stroke-dashoffset:0;stroke-opacity:1"
         sodipodi:type="star" />
    </g>
    <g
       id="g10318"
       transform="translate(38.481904,8.9989183)">
      <g
         id="g10312">
        <path
           id="path9102"
           d="M 66.380157,111.60328 C 52.219657,112.66976 36.355407,114.1704 25.598907,124.32203 C 20.691554,129.08778 25.169617,136.23499 30.380157,138.57203 C 48.798617,148.5399 71.164097,148.87862 91.549347,145.75655 C 101.25102,143.56389 113.19088,141.34566 118.84891,132.13453 C 121.41558,124.62613 112.45453,119.98423 106.81766,117.54078 C 94.105387,112.44466 80.103057,111.15078 66.380157,111.60328 z"
           style="fill:none;fill-opacity:0.16129031;fill-rule:evenodd;stroke:#000000;stroke-width:2;stroke-linecap:butt;stroke-linejoin:miter;stroke-miterlimit:4;stroke-dasharray:none;stroke-opacity:1" />
        <g
           transform="translate(-72.376621,-151.03514)"
           id="g9104">
          <text
             xml:space="preserve"
             style="font-size:14px;font-style:normal;font-weight:normal;fill:#000000;fill-opacity:1;stroke:none;stroke-width:1px;stroke-linecap:butt;stroke-linejoin:miter;stroke-opacity:1;font-family:Bitstream Vera Sans"
             x="138.25835"
             y="285.64728"
             id="text9106"><tspan
               sodipodi:role="line"
               id="tspan9108"
               x="138.25835"
               y="285.64728">Q</tspan></text>
        </g>
      </g>
      <path
         transform="matrix(0.700671,0,0,0.6882871,-15.923088,-65.622296)"
         d="M 54.712832,283.50293 L 45.210078,288.98935 L 45.210078,278.01651 L 54.712832,283.50293 z"
         inkscape:randomized="0"
         inkscape:rounded="0"
         inkscape:flatsided="true"
         sodipodi:arg2="1.0471976"
         sodipodi:arg1="0"
         sodipodi:r2="3.1675849"
         sodipodi:r1="6.3351698"
         sodipodi:cy="283.50293"
         sodipodi:cx="48.377663"
         sodipodi:sides="3"
         id="path9110"
         style="fill:#000000;fill-opacity:1;stroke:#000000;stroke-width:2;stroke-miterlimit:4;stroke-dasharray:none;stroke-dashoffset:0;stroke-opacity:1"
         sodipodi:type="star" />
    </g>
    <g
       id="g10342"
       transform="translate(38.481904,8.9989183)">
      <g
         id="g10336">
        <path
           id="path9116"
           d="M 67.39031,186.35463 C 53.22981,187.42111 37.36556,188.92175 26.60906,199.07338 C 21.701707,203.83913 26.17977,210.98634 31.39031,213.32338 C 49.80877,223.29125 72.17425,223.62997 92.5595,220.5079 C 102.26117,218.31524 114.20103,216.09701 119.85906,206.88588 C 122.42573,199.37747 113.46468,194.73558 107.82781,192.29213 C 95.11554,187.19601 81.11321,185.90213 67.39031,186.35463 z"
           style="fill:none;fill-opacity:0.16129031;fill-rule:evenodd;stroke:#000000;stroke-width:2;stroke-linecap:butt;stroke-linejoin:miter;stroke-miterlimit:4;stroke-dasharray:none;stroke-opacity:1" />
        <g
           transform="translate(-71.205825,-76.283799)"
           id="g9118">
          <text
             xml:space="preserve"
             style="font-size:14px;font-style:normal;font-weight:normal;fill:#000000;fill-opacity:1;stroke:none;stroke-width:1px;stroke-linecap:butt;stroke-linejoin:miter;stroke-opacity:1;font-family:Bitstream Vera Sans"
             x="138.25835"
             y="285.64728"
             id="text9120"><tspan
               sodipodi:role="line"
               id="tspan9122"
               x="138.25835"
               y="285.64728">R</tspan></text>
        </g>
      </g>
      <path
         transform="matrix(0.700671,0,0,0.6882871,-14.912935,9.12904)"
         d="M 54.712832,283.50293 L 45.210078,288.98935 L 45.210078,278.01651 L 54.712832,283.50293 z"
         inkscape:randomized="0"
         inkscape:rounded="0"
         inkscape:flatsided="true"
         sodipodi:arg2="1.0471976"
         sodipodi:arg1="0"
         sodipodi:r2="3.1675849"
         sodipodi:r1="6.3351698"
         sodipodi:cy="283.50293"
         sodipodi:cx="48.377663"
         sodipodi:sides="3"
         id="path9124"
         style="fill:#000000;fill-opacity:1;stroke:#000000;stroke-width:2;stroke-miterlimit:4;stroke-dasharray:none;stroke-dashoffset:0;stroke-opacity:1"
         sodipodi:type="star" />
    </g>
    <g
       id="g3383"
       transform="translate(-15.37524,5.6802173)">
      <path
         id="path2385"
         d="M 548.5601,40.170644 C 534.3996,41.237124 518.53535,42.737764 507.77885,52.889394 C 502.8715,57.655144 507.34956,64.802354 512.5601,67.139394 C 530.97856,77.107264 553.34404,77.445984 573.72929,74.323914 C 583.43096,72.131254 595.37082,69.913024 601.02885,60.701894 C 603.59552,53.193484 594.63447,48.551594 588.9976,46.108144 C 576.28533,41.012024 562.283,39.718144 548.5601,40.170644 z"
         style="fill:none;fill-opacity:0.16129031;fill-rule:evenodd;stroke:#000000;stroke-width:2;stroke-linecap:butt;stroke-linejoin:miter;stroke-miterlimit:4;stroke-dasharray:none;stroke-opacity:1" />
      <g
         transform="translate(410.52793,-222.46778)"
         id="g4727">
        <text
           xml:space="preserve"
           style="font-size:14px;font-style:normal;font-weight:normal;fill:#000000;fill-opacity:1;stroke:none;stroke-width:1px;stroke-linecap:butt;stroke-linejoin:miter;stroke-opacity:1;font-family:Bitstream Vera Sans"
           x="138.25835"
           y="285.64728"
           id="text4692"><tspan
             sodipodi:role="line"
             id="tspan4694"
             x="138.25835"
             y="285.64728">X</tspan></text>
      </g>
    </g>
    <g
       id="g3413"
       transform="translate(-6.80381,57.325758)">
      <path
         id="path3391"
         d="M 539.98867,138.02779 C 525.82817,139.09427 509.96392,140.59491 499.20742,150.74654 C 494.30007,155.51229 498.77813,162.6595 503.98867,164.99654 C 522.40713,174.96441 544.77261,175.30313 565.15786,172.18106 C 574.85953,169.9884 586.79939,167.77017 592.45742,158.55904 C 595.02409,151.05063 586.06304,146.40874 580.42617,143.96529 C 567.7139,138.86917 553.71157,137.57529 539.98867,138.02779 z"
         style="fill:none;fill-opacity:0.16129031;fill-rule:evenodd;stroke:#000000;stroke-width:2;stroke-linecap:butt;stroke-linejoin:miter;stroke-miterlimit:4;stroke-dasharray:none;stroke-opacity:1" />
      <g
         transform="translate(402.46578,-124.61064)"
         id="g3393">
        <text
           xml:space="preserve"
           style="font-size:14px;font-style:normal;font-weight:normal;fill:#000000;fill-opacity:1;stroke:none;stroke-width:1px;stroke-linecap:butt;stroke-linejoin:miter;stroke-opacity:1;font-family:Bitstream Vera Sans"
           x="138.25835"
           y="285.64728"
           id="text3395"><tspan
             sodipodi:role="line"
             id="tspan3397"
             x="138.25835"
             y="285.64728">Y</tspan></text>
      </g>
    </g>
    <g
       id="g3433"
       transform="translate(35.19619,32.927466)">
      <path
         id="path3401"
         d="M 648.5601,83.027788 C 634.3996,84.094268 618.53535,85.594908 607.77885,95.746538 C 602.8715,100.51229 607.34956,107.6595 612.5601,109.99654 C 630.97856,119.96441 653.34404,120.30313 673.72929,117.18106 C 683.43096,114.9884 695.37082,112.77017 701.02885,103.55904 C 703.59552,96.050628 694.63447,91.408738 688.9976,88.965288 C 676.28533,83.869168 662.283,82.575288 648.5601,83.027788 z"
         style="fill:none;fill-opacity:0.16129031;fill-rule:evenodd;stroke:#000000;stroke-width:2;stroke-linecap:butt;stroke-linejoin:miter;stroke-miterlimit:4;stroke-dasharray:6, 2;stroke-dashoffset:0;stroke-opacity:1" />
      <g
         transform="translate(510.51768,-179.61064)"
         id="g3403">
        <text
           xml:space="preserve"
           style="font-size:14px;font-style:normal;font-weight:normal;fill:#000000;fill-opacity:1;stroke:none;stroke-width:1px;stroke-linecap:butt;stroke-linejoin:miter;stroke-opacity:1;font-family:Bitstream Vera Sans"
           x="138.25835"
           y="285.64728"
           id="text3405"><tspan
             sodipodi:role="line"
             id="tspan3407"
             x="138.25835"
             y="285.64728">Z</tspan></text>
      </g>
    </g>
    <path
       style="fill:none;fill-rule:evenodd;stroke:#000000;stroke-width:1px;stroke-linecap:butt;stroke-linejoin:miter;marker-end:url(#Arrow1Lend);stroke-opacity:1"
       d="M 574.20844,194.26964 L 652.75537,152.85081"
       id="path3439"
       inkscape:connector-type="polyline"
       inkscape:connection-start="#g3413"
       inkscape:connection-end="#g3433" />
    <path
       style="fill:none;fill-rule:evenodd;stroke:#000000;stroke-width:1px;stroke-linecap:butt;stroke-linejoin:miter;marker-end:url(#Arrow1Lend);stroke-opacity:1"
       d="M 578.98267,82.746417 L 647.98114,114.87134"
       id="path3441"
       inkscape:connector-type="polyline"
       inkscape:connection-start="#g3383"
       inkscape:connection-end="#g3433" />
    <g
       id="g5716">
      <path
         id="path5469"
         d="M 260.08483,120.6022 C 245.92433,121.66868 230.06008,123.16932 219.30358,133.32095 C 214.39623,138.0867 218.87429,145.23391 224.08483,147.57095 C 242.50329,157.53882 264.86877,157.87754 285.25402,154.75547 C 294.95569,152.56281 306.89555,150.34458 312.55358,141.13345 C 315.12025,133.62504 306.1592,128.98315 300.52233,126.5397 C 287.81006,121.44358 273.80773,120.1497 260.08483,120.6022 z"
         style="fill:none;fill-opacity:0.16129030999999999;fill-rule:evenodd;stroke:#000000;stroke-width:2;stroke-linecap:butt;stroke-linejoin:miter;stroke-miterlimit:4;stroke-dasharray:6,2;stroke-dashoffset:0.2;stroke-opacity:1" />
      <g
         transform="translate(122.05266,-142.03624)"
         id="g5471">
        <text
           xml:space="preserve"
           style="font-size:14px;font-style:normal;font-weight:normal;fill:#000000;fill-opacity:1;stroke:none;stroke-width:1px;stroke-linecap:butt;stroke-linejoin:miter;stroke-opacity:1;font-family:Bitstream Vera Sans"
           x="138.25835"
           y="285.64728"
           id="text5473"><tspan
             sodipodi:role="line"
             id="tspan5475"
             x="138.25835"
             y="285.64728">A</tspan></text>
      </g>
    </g>
    <g
       id="g5722">
      <path
         style="fill:none;fill-opacity:0.16129030999999999;fill-rule:evenodd;stroke:#000000;stroke-width:2;stroke-linecap:butt;stroke-linejoin:miter;stroke-miterlimit:4;stroke-dasharray:6,2;stroke-dashoffset:0.2;stroke-opacity:1"
         d="M 412.22769,120.6022 C 398.06719,121.66868 382.20294,123.16932 371.44644,133.32095 C 366.53909,138.0867 371.01715,145.23391 376.22769,147.57095 C 394.64615,157.53882 417.01163,157.87754 437.39688,154.75547 C 447.09855,152.56281 459.03841,150.34458 464.69644,141.13345 C 467.26311,133.62504 458.30206,128.98315 452.66519,126.5397 C 439.95292,121.44358 425.95059,120.1497 412.22769,120.6022 z"
         id="path7924" />
      <g
         id="g7926"
         transform="translate(273.98702,-142.03623)">
        <text
           id="text7928"
           y="285.64728"
           x="138.25835"
           style="font-size:14px;font-style:normal;font-weight:normal;fill:#000000;fill-opacity:1;stroke:none;stroke-width:1px;stroke-linecap:butt;stroke-linejoin:miter;stroke-opacity:1;font-family:Bitstream Vera Sans"
           xml:space="preserve"><tspan
             y="285.64728"
             x="138.25835"
             id="tspan7930"
             sodipodi:role="line">B</tspan></text>
      </g>
    </g>
    <path
       style="fill:none;fill-rule:evenodd;stroke:#000000;stroke-width:1px;stroke-linecap:butt;stroke-linejoin:miter;marker-end:url(#Arrow1Lend);stroke-opacity:1"
       d="M 314.00526,138.50803 L 368.32992,138.50803"
       id="path7972"
       inkscape:connector-type="polyline" />
    <path
       style="fill:none;fill-rule:evenodd;stroke:#000000;stroke-width:1px;stroke-linecap:butt;stroke-linejoin:miter;stroke-opacity:1;marker-end:url(#Arrow1Lend)"
       d="M 447.96682,157.49776 L 507.4684,194.26964"
       id="path5541"
       inkscape:connector-type="polyline"
       inkscape:connection-start="#path7924"
       inkscape:connection-end="#g3413" />
    <path
       style="fill:none;fill-rule:evenodd;stroke:#000000;stroke-width:1px;stroke-linecap:butt;stroke-linejoin:miter;stroke-opacity:1;marker-end:url(#Arrow1Lend)"
       d="M 145.03045,82.746416 L 224.20753,119.51829"
       id="path5730"
       inkscape:connector-type="polyline"
       inkscape:connection-start="#g10294"
       inkscape:connection-end="#g5716" />
    <path
       style="fill:none;fill-rule:evenodd;stroke:#000000;stroke-width:1px;stroke-linecap:butt;stroke-linejoin:miter;stroke-opacity:1;marker-end:url(#Arrow1Lend)"
       d="M 314.00526,125.12091 L 489.28709,77.143796"
       id="path5734"
       inkscape:connector-type="polyline"
       inkscape:connection-start="#g5716"
       inkscape:connection-end="#g3383" />
    <path
       style="fill:none;fill-rule:evenodd;stroke:#000000;stroke-width:1px;stroke-linecap:butt;stroke-linejoin:miter;marker-end:url(#Arrow1Lend);stroke-opacity:1;display:inline"
       d="M 158.7825,138.50802 L 216.18706,138.50802"
       id="path5736"
       inkscape:connector-type="polyline"
       inkscape:connection-end="#g5716"
       inkscape:connection-start="#g10318" />
    <path
       style="fill:none;fill-rule:evenodd;stroke:#000000;stroke-width:1px;stroke-linecap:butt;stroke-linejoin:miter;stroke-opacity:1;marker-end:url(#Arrow1Lend)"
       d="M 159.79265,200.57358 L 368.32992,150.2991"
       id="path5738"
       inkscape:connector-type="polyline"
       inkscape:connection-start="#g10342"
       inkscape:connection-end="#g5722" />
  </g>
</svg>
