<?xml version="1.0" encoding="UTF-8" standalone="no"?>
<!-- Created with Inkscape (http://www.inkscape.org/) -->
<svg
   xmlns:dc="http://purl.org/dc/elements/1.1/"
   xmlns:cc="http://creativecommons.org/ns#"
   xmlns:rdf="http://www.w3.org/1999/02/22-rdf-syntax-ns#"
   xmlns:svg="http://www.w3.org/2000/svg"
   xmlns="http://www.w3.org/2000/svg"
   xmlns:sodipodi="http://sodipodi.sourceforge.net/DTD/sodipodi-0.dtd"
   xmlns:inkscape="http://www.inkscape.org/namespaces/inkscape"
   width="1052.3622"
   height="744.09448"
   id="svg9073"
   sodipodi:version="0.32"
   inkscape:version="0.46"
   sodipodi:docname="concepts-nested1.svg"
   inkscape:output_extension="org.inkscape.output.svg.inkscape"
   version="1.0">
  <defs
     id="defs9075">
    <marker
       inkscape:stockid="TriangleOutL"
       orient="auto"
       refY="0.0"
       refX="0.0"
       id="TriangleOutL"
       style="overflow:visible">
      <path
         id="path3589"
         d="M 5.77,0.0 L -2.88,5.0 L -2.88,-5.0 L 5.77,0.0 z "
         style="fill-rule:evenodd;stroke:#000000;stroke-width:1.0pt;marker-start:none"
         transform="scale(0.8)" />
    </marker>
    <marker
       inkscape:stockid="Arrow1Lend"
       orient="auto"
       refY="0"
       refX="0"
       id="Arrow1Lend"
       style="overflow:visible">
      <path
         id="path3449"
         d="M 0,0 L 5,-5 L -12.5,0 L 5,5 L 0,0 z"
         style="fill-rule:evenodd;stroke:#000000;stroke-width:1pt;marker-start:none"
         transform="matrix(-0.8,0,0,-0.8,-10,0)" />
    </marker>
    <marker
       inkscape:stockid="EmptyTriangleOutL"
       orient="auto"
       refY="0"
       refX="0"
       id="EmptyTriangleOutL"
       style="overflow:visible">
      <path
         id="path4101"
         d="M 5.77,0 L -2.88,5 L -2.88,-5 L 5.77,0 z"
         style="fill:#ffffff;fill-rule:evenodd;stroke:#000000;stroke-width:1pt;marker-start:none"
         transform="matrix(0.8,0,0,0.8,-4.8,0)" />
    </marker>
    <inkscape:perspective
       sodipodi:type="inkscape:persp3d"
       inkscape:vp_x="0 : 526.18109 : 1"
       inkscape:vp_y="0 : 1000 : 0"
       inkscape:vp_z="744.09448 : 526.18109 : 1"
       inkscape:persp3d-origin="372.04724 : 350.78739 : 1"
       id="perspective9081" />
  </defs>
  <sodipodi:namedview
     id="base"
     pagecolor="#ffffff"
     bordercolor="#666666"
     borderopacity="1.0"
     gridtolerance="10000"
     guidetolerance="10"
     objecttolerance="10"
     inkscape:pageopacity="0.0"
     inkscape:pageshadow="2"
     inkscape:zoom="0.98994949"
     inkscape:cx="390.16981"
     inkscape:cy="408.24421"
     inkscape:document-units="px"
     inkscape:current-layer="layer1"
     showgrid="false"
     inkscape:window-width="1600"
     inkscape:window-height="978"
     inkscape:window-x="0"
     inkscape:window-y="0" />
  <metadata
     id="metadata9078">
    <rdf:RDF>
      <cc:Work
         rdf:about="">
        <dc:format>image/svg+xml</dc:format>
        <dc:type
           rdf:resource="http://purl.org/dc/dcmitype/StillImage" />
      </cc:Work>
    </rdf:RDF>
  </metadata>
  <g
     inkscape:label="Layer 1"
     inkscape:groupmode="layer"
     id="layer1">
    <g
       id="g10288"
       transform="translate(48.448917,238.79841)">
      <path
         style="fill:none;fill-opacity:0.16129031;fill-rule:evenodd;stroke:#000000;stroke-width:2;stroke-linecap:butt;stroke-linejoin:miter;stroke-miterlimit:4;stroke-dasharray:none;stroke-opacity:1"
         d="M 64.359852,36.851943 C 50.199352,37.918423 34.335102,39.419063 23.578602,49.570693 C 18.671249,54.336443 23.149312,61.483652 28.359852,63.820692 C 46.778312,73.788562 69.143792,74.127282 89.529042,71.005212 C 99.230712,68.812552 111.17057,66.594322 116.8286,57.383193 C 119.39527,49.874783 110.43422,45.232893 104.79735,42.789443 C 92.085082,37.693323 78.082752,36.399443 64.359852,36.851943 z"
         id="path2444" />
      <g
         id="g2446"
         transform="translate(-73.556108,-225.78649)">
        <text
           id="text2448"
           y="285.64728"
           x="138.25835"
           style="font-size:14px;font-style:normal;font-weight:normal;fill:#000000;fill-opacity:1;stroke:none;stroke-width:1px;stroke-linecap:butt;stroke-linejoin:miter;stroke-opacity:1;font-family:Bitstream Vera Sans"
           xml:space="preserve"><tspan
             y="285.64728"
             x="138.25835"
             id="tspan2450"
             sodipodi:role="line">P</tspan></text>
      </g>
    </g>
    <path
       sodipodi:type="star"
       style="fill:#000000;fill-opacity:1;stroke:#000000;stroke-width:2;stroke-miterlimit:4;stroke-dasharray:none;stroke-dashoffset:0;stroke-opacity:1"
       id="path2452"
       sodipodi:sides="3"
       sodipodi:cx="48.377663"
       sodipodi:cy="283.50293"
       sodipodi:r1="6.3351698"
       sodipodi:r2="3.1675849"
       sodipodi:arg1="0"
       sodipodi:arg2="1.0471976"
       inkscape:flatsided="true"
       inkscape:rounded="0"
       inkscape:randomized="0"
       d="M 54.712832,283.50293 L 45.210078,288.98935 L 45.210078,278.01651 L 54.712832,283.50293 z"
       transform="matrix(0.700671,0,0,0.6882871,30.505524,98.42477)" />
    <g
       id="g10318"
       transform="translate(48.448917,238.79841)">
      <g
         id="g10312">
        <path
           id="path9102"
           d="M 66.380157,111.60328 C 52.219657,112.66976 36.355407,114.1704 25.598907,124.32203 C 20.691554,129.08778 25.169617,136.23499 30.380157,138.57203 C 48.798617,148.5399 71.164097,148.87862 91.549347,145.75655 C 101.25102,143.56389 113.19088,141.34566 118.84891,132.13453 C 121.41558,124.62613 112.45453,119.98423 106.81766,117.54078 C 94.105387,112.44466 80.103057,111.15078 66.380157,111.60328 z"
           style="fill:none;fill-opacity:0.16129031;fill-rule:evenodd;stroke:#000000;stroke-width:2;stroke-linecap:butt;stroke-linejoin:miter;stroke-miterlimit:4;stroke-dasharray:none;stroke-opacity:1" />
        <g
           transform="translate(-72.376621,-151.03514)"
           id="g9104">
          <text
             xml:space="preserve"
             style="font-size:14px;font-style:normal;font-weight:normal;fill:#000000;fill-opacity:1;stroke:none;stroke-width:1px;stroke-linecap:butt;stroke-linejoin:miter;stroke-opacity:1;font-family:Bitstream Vera Sans"
             x="138.25835"
             y="285.64728"
             id="text9106"><tspan
               sodipodi:role="line"
               id="tspan9108"
               x="138.25835"
               y="285.64728">Q</tspan></text>
        </g>
      </g>
      <path
         transform="matrix(0.700671,0,0,0.6882871,-15.923088,-65.622296)"
         d="M 54.712832,283.50293 L 45.210078,288.98935 L 45.210078,278.01651 L 54.712832,283.50293 z"
         inkscape:randomized="0"
         inkscape:rounded="0"
         inkscape:flatsided="true"
         sodipodi:arg2="1.0471976"
         sodipodi:arg1="0"
         sodipodi:r2="3.1675849"
         sodipodi:r1="6.3351698"
         sodipodi:cy="283.50293"
         sodipodi:cx="48.377663"
         sodipodi:sides="3"
         id="path9110"
         style="fill:#000000;fill-opacity:1;stroke:#000000;stroke-width:2;stroke-miterlimit:4;stroke-dasharray:none;stroke-dashoffset:0;stroke-opacity:1"
         sodipodi:type="star" />
    </g>
    <g
       id="g10342"
       transform="translate(48.448917,238.79841)">
      <g
         id="g10336">
        <path
           id="path9116"
           d="M 67.39031,186.35463 C 53.22981,187.42111 37.36556,188.92175 26.60906,199.07338 C 21.701707,203.83913 26.17977,210.98634 31.39031,213.32338 C 49.80877,223.29125 72.17425,223.62997 92.5595,220.5079 C 102.26117,218.31524 114.20103,216.09701 119.85906,206.88588 C 122.42573,199.37747 113.46468,194.73558 107.82781,192.29213 C 95.11554,187.19601 81.11321,185.90213 67.39031,186.35463 z"
           style="fill:none;fill-opacity:0.16129031;fill-rule:evenodd;stroke:#000000;stroke-width:2;stroke-linecap:butt;stroke-linejoin:miter;stroke-miterlimit:4;stroke-dasharray:none;stroke-opacity:1" />
        <g
           transform="translate(-71.205825,-76.283799)"
           id="g9118">
          <text
             xml:space="preserve"
             style="font-size:14px;font-style:normal;font-weight:normal;fill:#000000;fill-opacity:1;stroke:none;stroke-width:1px;stroke-linecap:butt;stroke-linejoin:miter;stroke-opacity:1;font-family:Bitstream Vera Sans"
             x="138.25835"
             y="285.64728"
             id="text9120"><tspan
               sodipodi:role="line"
               id="tspan9122"
               x="138.25835"
               y="285.64728">R</tspan></text>
        </g>
      </g>
      <path
         transform="matrix(0.700671,0,0,0.6882871,-14.912935,9.12904)"
         d="M 54.712832,283.50293 L 45.210078,288.98935 L 45.210078,278.01651 L 54.712832,283.50293 z"
         inkscape:randomized="0"
         inkscape:rounded="0"
         inkscape:flatsided="true"
         sodipodi:arg2="1.0471976"
         sodipodi:arg1="0"
         sodipodi:r2="3.1675849"
         sodipodi:r1="6.3351698"
         sodipodi:cy="283.50293"
         sodipodi:cx="48.377663"
         sodipodi:sides="3"
         id="path9124"
         style="fill:#000000;fill-opacity:1;stroke:#000000;stroke-width:2;stroke-miterlimit:4;stroke-dasharray:none;stroke-dashoffset:0;stroke-opacity:1"
         sodipodi:type="star" />
    </g>
    <g
       id="g3383"
       transform="translate(-99.40823,235.47971)">
      <path
         id="path2385"
         d="M 548.5601,40.170644 C 534.3996,41.237124 518.53535,42.737764 507.77885,52.889394 C 502.8715,57.655144 507.34956,64.802354 512.5601,67.139394 C 530.97856,77.107264 553.34404,77.445984 573.72929,74.323914 C 583.43096,72.131254 595.37082,69.913024 601.02885,60.701894 C 603.59552,53.193484 594.63447,48.551594 588.9976,46.108144 C 576.28533,41.012024 562.283,39.718144 548.5601,40.170644 z"
         style="fill:none;fill-opacity:0.16129031;fill-rule:evenodd;stroke:#000000;stroke-width:2;stroke-linecap:butt;stroke-linejoin:miter;stroke-miterlimit:4;stroke-dasharray:none;stroke-opacity:1" />
      <g
         transform="translate(410.52793,-222.46778)"
         id="g4727">
        <text
           xml:space="preserve"
           style="font-size:14px;font-style:normal;font-weight:normal;fill:#000000;fill-opacity:1;stroke:none;stroke-width:1px;stroke-linecap:butt;stroke-linejoin:miter;stroke-opacity:1;font-family:Bitstream Vera Sans"
           x="138.25835"
           y="285.64728"
           id="text4692"><tspan
             sodipodi:role="line"
             id="tspan4694"
             x="138.25835"
             y="285.64728">X</tspan></text>
      </g>
    </g>
    <g
       id="g3413"
       transform="translate(-90.836797,212.37391)">
      <path
         id="path3391"
         d="M 539.98867,138.02779 C 525.82817,139.09427 509.96392,140.59491 499.20742,150.74654 C 494.30007,155.51229 498.77813,162.6595 503.98867,164.99654 C 522.40713,174.96441 544.77261,175.30313 565.15786,172.18106 C 574.85953,169.9884 586.79939,167.77017 592.45742,158.55904 C 595.02409,151.05063 586.06304,146.40874 580.42617,143.96529 C 567.7139,138.86917 553.71157,137.57529 539.98867,138.02779 z"
         style="fill:none;fill-opacity:0.16129031;fill-rule:evenodd;stroke:#000000;stroke-width:2;stroke-linecap:butt;stroke-linejoin:miter;stroke-miterlimit:4;stroke-dasharray:none;stroke-opacity:1" />
      <g
         transform="translate(402.46578,-124.61064)"
         id="g3393">
        <text
           xml:space="preserve"
           style="font-size:14px;font-style:normal;font-weight:normal;fill:#000000;fill-opacity:1;stroke:none;stroke-width:1px;stroke-linecap:butt;stroke-linejoin:miter;stroke-opacity:1;font-family:Bitstream Vera Sans"
           x="138.25835"
           y="285.64728"
           id="text3395"><tspan
             sodipodi:role="line"
             id="tspan3397"
             x="138.25835"
             y="285.64728">Y</tspan></text>
      </g>
    </g>
    <g
       id="g3433"
       transform="translate(-48.836797,262.72696)">
      <path
         id="path3401"
         d="M 648.5601,83.027788 C 634.3996,84.094268 618.53535,85.594908 607.77885,95.746538 C 602.8715,100.51229 607.34956,107.6595 612.5601,109.99654 C 630.97856,119.96441 653.34404,120.30313 673.72929,117.18106 C 683.43096,114.9884 695.37082,112.77017 701.02885,103.55904 C 703.59552,96.050628 694.63447,91.408738 688.9976,88.965288 C 676.28533,83.869168 662.283,82.575288 648.5601,83.027788 z"
         style="fill:none;fill-opacity:0.16129031;fill-rule:evenodd;stroke:#000000;stroke-width:2;stroke-linecap:butt;stroke-linejoin:miter;stroke-miterlimit:4;stroke-dasharray:6, 2;stroke-dashoffset:0;stroke-opacity:1" />
      <g
         transform="translate(510.51768,-179.61064)"
         id="g3403">
        <text
           xml:space="preserve"
           style="font-size:14px;font-style:normal;font-weight:normal;fill:#000000;fill-opacity:1;stroke:none;stroke-width:1px;stroke-linecap:butt;stroke-linejoin:miter;stroke-opacity:1;font-family:Bitstream Vera Sans"
           x="138.25835"
           y="285.64728"
           id="text3405"><tspan
             sodipodi:role="line"
             id="tspan3407"
             x="138.25835"
             y="285.64728">Z</tspan></text>
      </g>
    </g>
    <path
       style="fill:none;fill-rule:evenodd;stroke:#000000;stroke-width:1px;stroke-linecap:butt;stroke-linejoin:miter;marker-end:url(#Arrow1Lend);stroke-opacity:1"
       d="M 503.07231,366.79809 L 555.82554,365.17001"
       id="path3439"
       inkscape:connector-type="polyline"
       inkscape:connection-start="#g3413"
       inkscape:connection-end="#g3433" />
    <path
       style="fill:none;fill-rule:evenodd;stroke:#000000;stroke-width:1px;stroke-linecap:butt;stroke-linejoin:miter;marker-end:url(#Arrow1Lend);stroke-opacity:1"
       d="M 494.94968,312.54591 L 563.94816,344.67084"
       id="path3441"
       inkscape:connector-type="polyline"
       inkscape:connection-start="#g3383"
       inkscape:connection-end="#g3433" />
    <path
       style="fill:none;fill-rule:evenodd;stroke:#000000;stroke-width:1px;stroke-linecap:butt;stroke-linejoin:miter;marker-end:url(#Arrow1Lend);stroke-opacity:1;display:inline"
       d="M 323.97228,367.99942 L 405.25411,368.19178"
       id="path7972"
       inkscape:connector-type="polyline"
       inkscape:connection-start="#g3966"
       inkscape:connection-end="#g3413" />
    <path
       style="fill:none;fill-rule:evenodd;stroke:#000000;stroke-width:1px;stroke-linecap:butt;stroke-linejoin:miter;marker-end:url(#Arrow1Lend);stroke-opacity:1;display:inline"
       d="M 166.7292,293.43066 L 226.15407,293.27815"
       id="path5730"
       inkscape:connector-type="polyline"
       inkscape:connection-end="#g3958"
       inkscape:connection-start="#g10288" />
    <path
       style="fill:none;fill-rule:evenodd;stroke:#000000;stroke-width:1px;stroke-linecap:butt;stroke-linejoin:miter;marker-end:url(#Arrow1Lend);stroke-opacity:1;display:inline"
       d="M 168.74951,368.16719 L 226.15407,368.0141"
       id="path5736"
       inkscape:connector-type="polyline"
       inkscape:connection-end="#g3966"
       inkscape:connection-start="#g10318" />
    <path
       style="fill:none;fill-rule:evenodd;stroke:#000000;stroke-width:1px;stroke-linecap:butt;stroke-linejoin:miter;marker-end:url(#Arrow1Lend);stroke-opacity:1;display:inline"
       d="M 157.03187,424.06913 L 226.15407,391.16546"
       id="path5738"
       inkscape:connector-type="polyline"
       inkscape:connection-start="#g10342"
       inkscape:connection-end="#g3966" />
    <path
       style="fill:none;fill-rule:evenodd;stroke:#000000;stroke-width:1px;stroke-linecap:butt;stroke-linejoin:miter;marker-end:url(#Arrow1Lend);stroke-opacity:1;display:inline"
       d="M 323.97227,293.26284 L 405.2541,293.44598"
       id="path6417"
       inkscape:connector-type="polyline"
       inkscape:connection-start="#g3958"
       inkscape:connection-end="#g3383" />
    <rect
       style="fill:none;fill-opacity:1;stroke:#000000;stroke-width:1.88912594;stroke-miterlimit:4;stroke-dasharray:none;stroke-dashoffset:0.2;stroke-opacity:1"
       id="rect6465"
       width="681.96387"
       height="262.75052"
       x="22.167919"
       y="236.93227" />
    <g
       id="g3931"
       transform="translate(193.36811,42)">
      <path
         id="path3906"
         d="M 88.69899,72.213858 C 74.538486,73.280338 58.674236,74.780978 47.917736,84.932608 C 43.010383,89.698358 47.488446,96.845568 52.698986,99.182608 C 71.117446,109.15048 93.48293,109.4892 113.86817,106.36713 C 123.56984,104.17447 135.5097,101.95624 141.16773,92.745108 C 143.7344,85.236698 134.77335,80.594808 129.13648,78.151358 C 116.42421,73.055238 102.42189,71.761358 88.69899,72.213858 z"
         style="fill:none;fill-opacity:0.16129031;fill-rule:evenodd;stroke:#000000;stroke-width:2;stroke-linecap:butt;stroke-linejoin:miter;stroke-miterlimit:4;stroke-dasharray:6, 2;stroke-dashoffset:0;stroke-opacity:1" />
      <g
         transform="translate(-49.33319,-190.42458)"
         id="g3908">
        <text
           xml:space="preserve"
           style="font-size:14px;font-style:normal;font-weight:normal;fill:#000000;fill-opacity:1;stroke:none;stroke-width:1px;stroke-linecap:butt;stroke-linejoin:miter;stroke-opacity:1;font-family:Bitstream Vera Sans"
           x="138.25835"
           y="285.64728"
           id="text3910"><tspan
             sodipodi:role="line"
             id="tspan3912"
             x="138.25835"
             y="285.64728">A</tspan></text>
      </g>
      <path
         style="fill:none;fill-opacity:0.16129031;fill-rule:evenodd;stroke:#000000;stroke-width:2;stroke-linecap:butt;stroke-linejoin:miter;stroke-miterlimit:4;stroke-dasharray:6, 2;stroke-dashoffset:0;stroke-opacity:1"
         d="M 240.84184,72.213858 C 226.68134,73.280338 210.81709,74.780978 200.06059,84.932608 C 195.15324,89.698358 199.6313,96.845568 204.84184,99.182608 C 223.2603,109.15048 245.62578,109.4892 266.01103,106.36713 C 275.7127,104.17447 287.65256,101.95624 293.31059,92.745108 C 295.87726,85.236698 286.91621,80.594808 281.27934,78.151358 C 268.56707,73.055238 254.56474,71.761358 240.84184,72.213858 z"
         id="path7924" />
      <g
         id="g7926"
         transform="translate(102.60118,-190.42457)">
        <text
           id="text7928"
           y="285.64728"
           x="138.25835"
           style="font-size:14px;font-style:normal;font-weight:normal;fill:#000000;fill-opacity:1;stroke:none;stroke-width:1px;stroke-linecap:butt;stroke-linejoin:miter;stroke-opacity:1;font-family:Bitstream Vera Sans"
           xml:space="preserve"><tspan
             y="285.64728"
             x="138.25835"
             id="tspan7930"
             sodipodi:role="line">B</tspan></text>
      </g>
      <path
         inkscape:connector-type="polyline"
         id="path3918"
         d="M 142.61941,90.119681 L 196.94407,90.119681"
         style="fill:none;fill-rule:evenodd;stroke:#000000;stroke-width:1px;stroke-linecap:butt;stroke-linejoin:miter;marker-end:url(#Arrow1Lend);stroke-opacity:1" />
      <rect
         ry="0"
         rx="30.181229"
         y="37.976826"
         x="25.138893"
         height="104.28571"
         width="289.28571"
         id="rect9024"
         style="fill:none;fill-opacity:1;stroke:#000000;stroke-width:2;stroke-miterlimit:4;stroke-dasharray:none;stroke-dashoffset:0;stroke-opacity:1" />
      <text
         id="text9069"
         y="135.83397"
         x="102.97608"
         style="font-size:12px;font-style:normal;font-weight:normal;fill:#000000;fill-opacity:1;stroke:none;stroke-width:1px;stroke-linecap:butt;stroke-linejoin:miter;stroke-opacity:1;font-family:Bitstream Vera Sans"
         xml:space="preserve"><tspan
           y="135.83397"
           x="102.97608"
           id="tspan9071"
           sodipodi:role="line">Process definition: nested</tspan></text>
      <path
         transform="matrix(0.700671,0,0,0.6882871,4.409712,-105.01173)"
         d="M 54.712832,283.50293 L 45.210078,288.98935 L 45.210078,278.01651 L 54.712832,283.50293 z"
         inkscape:randomized="0"
         inkscape:rounded="0"
         inkscape:flatsided="true"
         sodipodi:arg2="1.0471976"
         sodipodi:arg1="0"
         sodipodi:r2="3.1675849"
         sodipodi:r1="6.3351698"
         sodipodi:cy="283.50293"
         sodipodi:cx="48.377663"
         sodipodi:sides="3"
         id="path3929"
         style="fill:#000000;fill-opacity:1;stroke:#000000;stroke-width:2;stroke-miterlimit:4;stroke-dasharray:none;stroke-dashoffset:0;stroke-opacity:1"
         sodipodi:type="star" />
    </g>
    <g
       id="g3958"
       transform="translate(0,-10)">
      <path
         id="path6400"
         d="M 270.07592,275.92423 C 255.98345,277.54596 240.19542,279.8279 229.4906,295.26493 C 224.60683,302.51195 229.06337,313.38032 234.24888,316.93413 C 252.57885,332.09173 274.83687,332.6068 295.12418,327.85924 C 304.77924,324.52498 316.66174,321.15184 322.29258,307.14498 C 324.84692,295.72735 315.92892,288.66868 310.31914,284.95306 C 297.66794,277.20367 283.73289,275.23613 270.07592,275.92423 z"
         style="fill:none;fill-opacity:0.16129031;fill-rule:evenodd;stroke:#000000;stroke-width:2.46035719;stroke-linecap:butt;stroke-linejoin:miter;stroke-miterlimit:4;stroke-dasharray:none;stroke-dashoffset:0.2;stroke-opacity:1" />
      <g
         transform="translate(132.28969,13.01192)"
         id="g6402">
        <text
           xml:space="preserve"
           style="font-size:14px;font-style:normal;font-weight:normal;fill:#000000;fill-opacity:1;stroke:none;stroke-width:1px;stroke-linecap:butt;stroke-linejoin:miter;stroke-opacity:1;font-family:Bitstream Vera Sans"
           x="138.25835"
           y="285.64728"
           id="text6404"><tspan
             sodipodi:role="line"
             id="tspan6406"
             x="138.25835"
             y="285.64728">S</tspan></text>
      </g>
      <text
         id="text3946"
         y="315.81012"
         x="253.38837"
         style="font-size:10px;font-style:normal;font-weight:normal;fill:#000000;fill-opacity:1;stroke:none;stroke-width:1px;stroke-linecap:butt;stroke-linejoin:miter;stroke-opacity:1;font-family:Bitstream Vera Sans"
         xml:space="preserve"><tspan
           y="315.81012"
           x="253.38837"
           id="tspan3948"
           sodipodi:role="line">&quot;nested&quot;</tspan></text>
    </g>
    <g
       id="g3966"
       transform="translate(0,-8)">
      <path
         id="path5469"
         d="M 270.07124,350.62166 C 255.96556,352.12627 240.16273,354.24342 229.44788,368.56561 C 224.55952,375.28925 229.02025,385.37273 234.21062,388.66989 C 252.55777,402.73282 274.83666,403.2107 295.14299,398.80599 C 304.8071,395.71254 316.70074,392.583 322.33687,379.58768 C 324.89359,368.99463 315.96723,362.44572 310.35218,358.99844 C 297.68913,351.8087 283.74102,349.98325 270.07124,350.62166 z"
         style="fill:none;fill-opacity:0.16129031;fill-rule:evenodd;stroke:#000000;stroke-width:2.37096143;stroke-linecap:butt;stroke-linejoin:miter;stroke-miterlimit:4;stroke-dasharray:7.11288469, 2.37096157;stroke-dashoffset:0.23709616;stroke-opacity:1" />
      <g
         transform="translate(132.52895,87.76326)"
         id="g5471">
        <text
           xml:space="preserve"
           style="font-size:14px;font-style:normal;font-weight:normal;fill:#000000;fill-opacity:1;stroke:none;stroke-width:1px;stroke-linecap:butt;stroke-linejoin:miter;stroke-opacity:1;font-family:Bitstream Vera Sans"
           x="138.25835"
           y="285.64728"
           id="text5473"><tspan
             sodipodi:role="line"
             id="tspan5475"
             x="138.25835"
             y="285.64728">T</tspan></text>
      </g>
      <text
         id="text3950"
         y="388.50049"
         x="253.38837"
         style="font-size:10px;font-style:normal;font-weight:normal;fill:#000000;fill-opacity:1;stroke:none;stroke-width:1px;stroke-linecap:butt;stroke-linejoin:miter;stroke-opacity:1;font-family:Bitstream Vera Sans"
         xml:space="preserve"><tspan
           y="388.50049"
           x="253.38837"
           id="tspan3952"
           sodipodi:role="line">&quot;nested&quot;</tspan></text>
    </g>
  </g>
</svg>
