<?xml version="1.0" encoding="UTF-8" standalone="no"?>
<!-- Created with Inkscape (http://www.inkscape.org/) -->
<svg
   xmlns:dc="http://purl.org/dc/elements/1.1/"
   xmlns:cc="http://creativecommons.org/ns#"
   xmlns:rdf="http://www.w3.org/1999/02/22-rdf-syntax-ns#"
   xmlns:svg="http://www.w3.org/2000/svg"
   xmlns="http://www.w3.org/2000/svg"
   xmlns:sodipodi="http://sodipodi.sourceforge.net/DTD/sodipodi-0.dtd"
   xmlns:inkscape="http://www.inkscape.org/namespaces/inkscape"
   width="744.09448819"
   height="1052.3622047"
   id="svg2456"
   sodipodi:version="0.32"
   inkscape:version="0.46"
   sodipodi:docname="concepts3-6.svg"
   inkscape:output_extension="org.inkscape.output.svg.inkscape">
  <defs
     id="defs2458">
    <marker
       inkscape:stockid="Arrow1Lend"
       orient="auto"
       refY="0.0"
       refX="0.0"
       id="Arrow1Lend"
       style="overflow:visible;">
      <path
         id="path3308"
         d="M 0.0,0.0 L 5.0,-5.0 L -12.5,0.0 L 5.0,5.0 L 0.0,0.0 z "
         style="fill-rule:evenodd;stroke:#000000;stroke-width:1.0pt;marker-start:none;"
         transform="scale(0.8) rotate(180) translate(12.5,0)" />
    </marker>
    <inkscape:perspective
       sodipodi:type="inkscape:persp3d"
       inkscape:vp_x="0 : 526.18109 : 1"
       inkscape:vp_y="0 : 1000 : 0"
       inkscape:vp_z="744.09448 : 526.18109 : 1"
       inkscape:persp3d-origin="372.04724 : 350.78739 : 1"
       id="perspective2464" />
  </defs>
  <sodipodi:namedview
     id="base"
     pagecolor="#ffffff"
     bordercolor="#666666"
     borderopacity="1.0"
     gridtolerance="10000"
     guidetolerance="10"
     objecttolerance="10"
     inkscape:pageopacity="0.0"
     inkscape:pageshadow="2"
     inkscape:zoom="1.4"
     inkscape:cx="281.08414"
     inkscape:cy="765.41359"
     inkscape:document-units="px"
     inkscape:current-layer="layer1"
     showgrid="false"
     inkscape:window-width="1600"
     inkscape:window-height="1134"
     inkscape:window-x="0"
     inkscape:window-y="0" />
  <metadata
     id="metadata2461">
    <rdf:RDF>
      <cc:Work
         rdf:about="">
        <dc:format>image/svg+xml</dc:format>
        <dc:type
           rdf:resource="http://purl.org/dc/dcmitype/StillImage" />
      </cc:Work>
    </rdf:RDF>
  </metadata>
  <g
     inkscape:label="Layer 1"
     inkscape:groupmode="layer"
     id="layer1">
    <g
       id="g3442"
       transform="translate(2.7345e-2,0)">
      <path
         style="fill:none;fill-opacity:0.16129031;fill-rule:evenodd;stroke:#000000;stroke-width:2;stroke-linecap:butt;stroke-linejoin:miter;stroke-miterlimit:4;stroke-dasharray:none;stroke-opacity:1"
         d="M 264.65791,135.8849 C 250.49741,136.95138 234.63316,138.45202 223.87666,148.60365 C 218.96931,153.3694 223.44737,160.51661 228.65791,162.85365 C 247.07637,172.82152 269.44185,173.16024 289.8271,170.03817 C 299.52877,167.84551 311.46863,165.62728 317.12666,156.41615 C 319.69333,148.90774 310.73228,144.26585 305.09541,141.8224 C 292.38314,136.72628 278.38081,135.4324 264.65791,135.8849 z"
         id="path2473" />
      <g
         id="g2475"
         transform="translate(94.312264,-127.99425)">
        <text
           id="text2477"
           y="285.64728"
           x="138.25835"
           style="font-size:14px;font-style:normal;font-weight:normal;fill:#000000;fill-opacity:1;stroke:none;stroke-width:1px;stroke-linecap:butt;stroke-linejoin:miter;stroke-opacity:1;font-family:Bitstream Vera Sans"
           xml:space="preserve"><tspan
             y="285.64728"
             x="138.25835"
             id="tspan2479"
             sodipodi:role="line">Approval 2</tspan></text>
      </g>
    </g>
    <g
       id="g3448"
       transform="translate(-2.7345e-2,0)">
      <path
         id="path2483"
         d="M 264.7126,24.456312 C 250.5521,25.522792 234.68785,27.023432 223.93135,37.175062 C 219.024,41.940812 223.50206,49.088022 228.7126,51.425062 C 247.13106,61.392932 269.49654,61.731652 289.88179,58.609582 C 299.58346,56.416922 311.52332,54.198692 317.18135,44.987562 C 319.74802,37.479152 310.78697,32.837262 305.1501,30.393812 C 292.43783,25.297692 278.4355,24.003812 264.7126,24.456312 z"
         style="fill:none;fill-opacity:0.16129031;fill-rule:evenodd;stroke:#000000;stroke-width:2;stroke-linecap:butt;stroke-linejoin:miter;stroke-miterlimit:4;stroke-dasharray:none;stroke-opacity:1" />
      <g
         transform="translate(94.312266,-239.42284)"
         id="g2485">
        <text
           xml:space="preserve"
           style="font-size:14px;font-style:normal;font-weight:normal;fill:#000000;fill-opacity:1;stroke:none;stroke-width:1px;stroke-linecap:butt;stroke-linejoin:miter;stroke-opacity:1;font-family:Bitstream Vera Sans"
           x="138.25835"
           y="285.64728"
           id="text2487"><tspan
             sodipodi:role="line"
             id="tspan2489"
             x="138.25835"
             y="285.64728">Approval 1</tspan></text>
      </g>
    </g>
    <g
       id="g3454">
      <g
         style="stroke:#000000;stroke-width:2;stroke-miterlimit:4;stroke-dasharray:6, 2;stroke-dashoffset:0;stroke-opacity:1"
         transform="translate(355.65506,-77.043413)"
         id="g4267">
        <path
           id="path3975"
           d="M 89.61929,157.21405 C 75.45879,158.28053 59.59454,159.78117 48.83804,169.9328 C 43.930687,174.69855 48.40875,181.84576 53.61929,184.1828 C 72.03775,194.15067 94.40323,194.48939 114.78848,191.36732 C 124.49015,189.17466 136.43002,186.95643 142.08805,177.7453 C 144.65472,170.23689 135.69367,165.595 130.05679,163.15155 C 117.34452,158.05543 103.34219,156.76155 89.61929,157.21405 z"
           style="fill:none;fill-opacity:0.16129031;fill-rule:evenodd;stroke:#000000;stroke-width:2;stroke-linecap:butt;stroke-linejoin:miter;stroke-miterlimit:4;stroke-dasharray:6, 2;stroke-dashoffset:0;stroke-opacity:1" />
      </g>
      <g
         transform="translate(353.67606,-77.166456)"
         id="g4262">
        <g
           transform="translate(-61.667759,-105.30817)"
           id="g3977">
          <text
             xml:space="preserve"
             style="font-size:14px;font-style:normal;font-weight:normal;fill:#000000;fill-opacity:1;stroke:none;stroke-width:1px;stroke-linecap:butt;stroke-linejoin:miter;stroke-opacity:1;font-family:Bitstream Vera Sans"
             x="138.25835"
             y="285.64728"
             id="text3979"><tspan
               sodipodi:role="line"
               id="tspan3981"
               x="138.25835"
               y="285.64728">Grant</tspan></text>
        </g>
      </g>
    </g>
    <g
       id="g3436">
      <path
         id="path2385"
         d="M 74.988667,80.170606 C 60.828167,81.237086 44.963917,82.737726 34.207417,92.889356 C 29.300064,97.655106 33.778127,104.80232 38.988667,107.13936 C 57.407127,117.10723 79.772607,117.44595 100.15786,114.32388 C 109.85953,112.13122 121.79939,109.91299 127.45742,100.70186 C 130.02409,93.193446 121.06304,88.551556 115.42617,86.108106 C 102.7139,81.011986 88.711567,79.718106 74.988667,80.170606 z"
         style="fill:none;fill-opacity:0.16129031;fill-rule:evenodd;stroke:#000000;stroke-width:2;stroke-linecap:butt;stroke-linejoin:miter;stroke-miterlimit:4;stroke-dasharray:none;stroke-opacity:1" />
      <g
         transform="translate(-87.225631,-183.92387)"
         id="g4727">
        <text
           xml:space="preserve"
           style="font-size:14px;font-style:normal;font-weight:normal;fill:#000000;fill-opacity:1;stroke:none;stroke-width:1px;stroke-linecap:butt;stroke-linejoin:miter;stroke-opacity:1;font-family:Bitstream Vera Sans"
           x="138.25835"
           y="285.64728"
           id="text4692"><tspan
             sodipodi:role="line"
             id="tspan4694"
             x="138.25835"
             y="285.64728">Request</tspan></text>
      </g>
    </g>
    <path
       sodipodi:type="star"
       style="fill:#000000;fill-opacity:1;stroke:#000000;stroke-width:2;stroke-miterlimit:4;stroke-dasharray:none;stroke-dashoffset:0;stroke-opacity:1;display:inline"
       id="path2452"
       sodipodi:sides="3"
       sodipodi:cx="48.377663"
       sodipodi:cy="283.50293"
       sodipodi:r1="6.3351698"
       sodipodi:r2="3.1675849"
       sodipodi:arg1="0"
       sodipodi:arg2="1.0471976"
       inkscape:flatsided="true"
       inkscape:rounded="0"
       inkscape:randomized="0"
       d="M 54.712832,283.50293 L 45.210078,288.98935 L 45.210078,278.01651 L 54.712832,283.50293 z"
       transform="matrix(0.700671,0,0,0.6882871,-8.5779708,-97.054979)" />
    <path
       style="fill:none;fill-rule:evenodd;stroke:#000000;stroke-width:1px;stroke-linecap:butt;stroke-linejoin:miter;marker-end:url(#Arrow1Lend);stroke-opacity:1"
       d="M 128.9091,82.418785 L 216.23373,56.742823"
       id="path2524"
       inkscape:connector-type="polyline" />
    <path
       style="fill:none;fill-rule:evenodd;stroke:#000000;stroke-width:1px;stroke-linecap:butt;stroke-linejoin:miter;marker-end:url(#Arrow1Lend);stroke-opacity:1;display:inline"
       d="M 128.9091,113.73407 L 216.23373,139.41004"
       id="path2526"
       inkscape:connector-type="polyline" />
    <path
       style="fill:none;fill-rule:evenodd;stroke:#000000;stroke-width:1px;stroke-linecap:butt;stroke-linejoin:miter;marker-end:url(#Arrow1Lend);stroke-opacity:1"
       d="M 314.05193,139.07271 L 401.37659,112.79447"
       id="path2528"
       inkscape:connector-type="polyline" />
    <path
       style="fill:none;fill-rule:evenodd;stroke:#000000;stroke-width:1px;stroke-linecap:butt;stroke-linejoin:miter;marker-end:url(#Arrow1Lend);stroke-opacity:1"
       d="M 314.05193,57.080162 L 401.37659,83.358432"
       id="path2530"
       inkscape:connector-type="polyline" />
    <rect
       ry="2.3036981"
       y="119.27079"
       x="73.874405"
       height="13.039894"
       width="12.251196"
       id="rect3358"
       style="fill:#000000;fill-opacity:1;stroke:#000000;stroke-width:1.8547982;stroke-linecap:round;stroke-linejoin:round;stroke-miterlimit:4;stroke-dasharray:none;stroke-opacity:1;display:inline" />
    <rect
       style="fill:none;fill-opacity:1;stroke:#000000;stroke-width:1.8547982;stroke-linecap:round;stroke-linejoin:round;stroke-miterlimit:4;stroke-dasharray:none;stroke-opacity:1;display:inline"
       id="rect5592"
       width="12.251196"
       height="13.039894"
       x="263.57098"
       y="63.699379"
       ry="2.3036981" />
    <path
       transform="matrix(0.9232637,0,0,0.974556,-160.02582,-96.138343)"
       d="M 365.71207,170.04579 A 5.471283,5.183321 0 1 1 354.7695,170.04579 A 5.471283,5.183321 0 1 1 365.71207,170.04579 z"
       sodipodi:ry="5.183321"
       sodipodi:rx="5.471283"
       sodipodi:cy="170.04579"
       sodipodi:cx="360.24078"
       id="path19591"
       style="fill:#000000;fill-opacity:1;stroke:#000000;stroke-width:2;stroke-miterlimit:4;stroke-dasharray:none;stroke-opacity:1;display:inline"
       sodipodi:type="arc" />
    <path
       transform="matrix(0.9232637,0,0,0.974556,-160.02582,-39.147092)"
       d="M 365.71207,170.04579 A 5.471283,5.183321 0 1 1 354.7695,170.04579 A 5.471283,5.183321 0 1 1 365.71207,170.04579 z"
       sodipodi:ry="5.183321"
       sodipodi:rx="5.471283"
       sodipodi:cy="170.04579"
       sodipodi:cx="360.24078"
       id="path3549"
       style="fill:#000000;fill-opacity:1;stroke:#000000;stroke-width:2;stroke-miterlimit:4;stroke-dasharray:none;stroke-opacity:1;display:inline"
       sodipodi:type="arc" />
    <rect
       ry="2.3036981"
       y="175.84224"
       x="263.57098"
       height="13.039894"
       width="12.251196"
       id="rect3571"
       style="fill:#000000;fill-opacity:1;stroke:#000000;stroke-width:1.8547982;stroke-linecap:round;stroke-linejoin:round;stroke-miterlimit:4;stroke-dasharray:none;stroke-opacity:1;display:inline" />
    <path
       sodipodi:type="arc"
       style="fill:#ffffff;fill-opacity:1;stroke:#000000;stroke-width:2;stroke-miterlimit:4;stroke-dasharray:none;stroke-opacity:1;display:inline"
       id="path19589"
       sodipodi:cx="360.24078"
       sodipodi:cy="170.04579"
       sodipodi:rx="5.471283"
       sodipodi:ry="5.183321"
       d="M 365.71207,170.04579 A 5.471283,5.183321 0 1 1 354.7695,170.04579 A 5.471283,5.183321 0 1 1 365.71207,170.04579 z"
       transform="matrix(0.9232637,0,0,0.974556,25.117021,-39.785557)" />
  </g>
</svg>
